<?xml version="1.0" encoding="UTF-8" standalone="no"?><!-- Generator: Gravit.io --><svg xmlns="http://www.w3.org/2000/svg" xmlns:xlink="http://www.w3.org/1999/xlink" style="isolation:isolate" viewBox="655 423 327 130.323" width="327pt" height="130.323pt"><defs><clipPath id="_clipPath_sKGUbPjByPkSKxkAvXKbBE4byBL4JlZ0"><rect x="655" y="423" width="327" height="130.323"/></clipPath></defs><g clip-path="url(#_clipPath_sKGUbPjByPkSKxkAvXKbBE4byBL4JlZ0)"><path d=" M 655 423 L 982 423 L 982 496.14 L 655 496.14 L 655 423 Z " fill="rgb(255,255,255)"/><path d=" M 681.14 484.04 L 681.14 484.04 Q 674.48 484.04 669.14 481.25 L 669.14 481.25 L 669.14 481.25 Q 663.8 478.46 660.77 473.45 L 660.77 473.45 L 660.77 473.45 Q 657.74 468.44 657.74 462.08 L 657.74 462.08 L 657.74 462.08 Q 657.74 455.72 660.77 450.71 L 660.77 450.71 L 660.77 450.71 Q 663.8 445.7 669.14 442.91 L 669.14 442.91 L 669.14 442.91 Q 674.48 440.12 681.14 440.12 L 681.14 440.12 L 681.14 440.12 Q 687.26 440.12 692.06 442.28 L 692.06 442.28 L 692.06 442.28 Q 696.86 444.44 699.98 448.52 L 699.98 448.52 L 691.04 456.5 L 691.04 456.5 Q 687.14 451.58 681.86 451.58 L 681.86 451.58 L 681.86 451.58 Q 677.42 451.58 674.72 454.43 L 674.72 454.43 L 674.72 454.43 Q 672.02 457.28 672.02 462.08 L 672.02 462.08 L 672.02 462.08 Q 672.02 466.88 674.72 469.73 L 674.72 469.73 L 674.72 469.73 Q 677.42 472.58 681.86 472.58 L 681.86 472.58 L 681.86 472.58 Q 687.14 472.58 691.04 467.66 L 691.04 467.66 L 699.98 475.64 L 699.98 475.64 Q 696.86 479.72 692.06 481.88 L 692.06 481.88 L 692.06 481.88 Q 687.26 484.04 681.14 484.04 L 681.14 484.04 Z  M 725.18 484.04 L 725.18 484.04 Q 718.4 484.04 713 481.22 L 713 481.22 L 713 481.22 Q 707.6 478.4 704.54 473.39 L 704.54 473.39 L 704.54 473.39 Q 701.48 468.38 701.48 462.08 L 701.48 462.08 L 701.48 462.08 Q 701.48 455.78 704.54 450.77 L 704.54 450.77 L 704.54 450.77 Q 707.6 445.76 713 442.94 L 713 442.94 L 713 442.94 Q 718.4 440.12 725.18 440.12 L 725.18 440.12 L 725.18 440.12 Q 731.96 440.12 737.36 442.94 L 737.36 442.94 L 737.36 442.94 Q 742.76 445.76 745.82 450.77 L 745.82 450.77 L 745.82 450.77 Q 748.88 455.78 748.88 462.08 L 748.88 462.08 L 748.88 462.08 Q 748.88 468.38 745.82 473.39 L 745.82 473.39 L 745.82 473.39 Q 742.76 478.4 737.36 481.22 L 737.36 481.22 L 737.36 481.22 Q 731.96 484.04 725.18 484.04 L 725.18 484.04 Z  M 725.18 472.58 L 725.18 472.58 Q 727.82 472.58 729.95 471.29 L 729.95 471.29 L 729.95 471.29 Q 732.08 470 733.34 467.63 L 733.34 467.63 L 733.34 467.63 Q 734.6 465.26 734.6 462.08 L 734.6 462.08 L 734.6 462.08 Q 734.6 458.9 733.34 456.53 L 733.34 456.53 L 733.34 456.53 Q 732.08 454.16 729.95 452.87 L 729.95 452.87 L 729.95 452.87 Q 727.82 451.58 725.18 451.58 L 725.18 451.58 L 725.18 451.58 Q 722.54 451.58 720.41 452.87 L 720.41 452.87 L 720.41 452.87 Q 718.28 454.16 717.02 456.53 L 717.02 456.53 L 717.02 456.53 Q 715.76 458.9 715.76 462.08 L 715.76 462.08 L 715.76 462.08 Q 715.76 465.26 717.02 467.63 L 717.02 467.63 L 717.02 467.63 Q 718.28 470 720.41 471.29 L 720.41 471.29 L 720.41 471.29 Q 722.54 472.58 725.18 472.58 L 725.18 472.58 Z  M 781.64 441.08 L 795.44 441.08 L 795.44 483.08 L 783.8 483.08 L 767.84 464 L 767.84 483.08 L 754.04 483.08 L 754.04 441.08 L 765.68 441.08 L 781.64 460.16 L 781.64 441.08 Z  M 816.2 472.4 L 837.2 472.4 L 837.2 483.08 L 802.28 483.08 L 802.28 441.08 L 836.42 441.08 L 836.42 451.76 L 816.2 451.76 L 816.2 456.68 L 833.96 456.68 L 833.96 466.88 L 816.2 466.88 L 816.2 472.4 Z  M 885.14 483.08 L 868.94 483.08 L 861.68 471.86 L 854.6 483.08 L 838.46 483.08 L 853.64 461.9 L 839 441.08 L 854.9 441.08 L 862.04 451.64 L 869 441.08 L 884.24 441.08 L 869.66 461.36 L 885.14 483.08 Z  M 917.12 483.08 L 914.3 475.76 L 898.34 475.76 L 895.52 483.08 L 881.12 483.08 L 899.48 441.08 L 913.4 441.08 L 931.76 483.08 L 917.12 483.08 Z  M 902.24 465.56 L 910.4 465.56 L 906.32 455 L 902.24 465.56 Z  M 911.3 438.26 L 911.3 438.26 Q 909.56 438.26 908.18 437.66 L 908.18 437.66 L 908.18 437.66 Q 906.8 437.06 905.3 436.04 L 905.3 436.04 L 905.3 436.04 Q 904.28 435.38 903.65 435.05 L 903.65 435.05 L 903.65 435.05 Q 903.02 434.72 902.42 434.72 L 902.42 434.72 L 902.42 434.72 Q 901.28 434.72 900.56 435.5 L 900.56 435.5 L 900.56 435.5 Q 899.84 436.28 899.72 437.66 L 899.72 437.66 L 893.3 437.66 L 893.3 437.66 Q 893.42 432.86 895.61 430.07 L 895.61 430.07 L 895.61 430.07 Q 897.8 427.28 901.58 427.28 L 901.58 427.28 L 901.58 427.28 Q 903.32 427.28 904.7 427.88 L 904.7 427.88 L 904.7 427.88 Q 906.08 428.48 907.58 429.5 L 907.58 429.5 L 907.58 429.5 Q 908.6 430.22 909.23 430.52 L 909.23 430.52 L 909.23 430.52 Q 909.86 430.82 910.46 430.82 L 910.46 430.82 L 910.46 430.82 Q 911.6 430.82 912.32 430.07 L 912.32 430.07 L 912.32 430.07 Q 913.04 429.32 913.16 428.06 L 913.16 428.06 L 919.58 428.06 L 919.58 428.06 Q 919.46 432.68 917.27 435.47 L 917.27 435.47 L 917.27 435.47 Q 915.08 438.26 911.3 438.26 L 911.3 438.26 Z  M 955.46 484.04 L 955.46 484.04 Q 948.68 484.04 943.28 481.22 L 943.28 481.22 L 943.28 481.22 Q 937.88 478.4 934.82 473.39 L 934.82 473.39 L 934.82 473.39 Q 931.76 468.38 931.76 462.08 L 931.76 462.08 L 931.76 462.08 Q 931.76 455.78 934.82 450.77 L 934.82 450.77 L 934.82 450.77 Q 937.88 445.76 943.28 442.94 L 943.28 442.94 L 943.28 442.94 Q 948.68 440.12 955.46 440.12 L 955.46 440.12 L 955.46 440.12 Q 962.24 440.12 967.64 442.94 L 967.64 442.94 L 967.64 442.94 Q 973.04 445.76 976.1 450.77 L 976.1 450.77 L 976.1 450.77 Q 979.16 455.78 979.16 462.08 L 979.16 462.08 L 979.16 462.08 Q 979.16 468.38 976.1 473.39 L 976.1 473.39 L 976.1 473.39 Q 973.04 478.4 967.64 481.22 L 967.64 481.22 L 967.64 481.22 Q 962.24 484.04 955.46 484.04 L 955.46 484.04 Z  M 955.46 472.58 L 955.46 472.58 Q 958.1 472.58 960.23 471.29 L 960.23 471.29 L 960.23 471.29 Q 962.36 470 963.62 467.63 L 963.62 467.63 L 963.62 467.63 Q 964.88 465.26 964.88 462.08 L 964.88 462.08 L 964.88 462.08 Q 964.88 458.9 963.62 456.53 L 963.62 456.53 L 963.62 456.53 Q 962.36 454.16 960.23 452.87 L 960.23 452.87 L 960.23 452.87 Q 958.1 451.58 955.46 451.58 L 955.46 451.58 L 955.46 451.58 Q 952.82 451.58 950.69 452.87 L 950.69 452.87 L 950.69 452.87 Q 948.56 454.16 947.3 456.53 L 947.3 456.53 L 947.3 456.53 Q 946.04 458.9 946.04 462.08 L 946.04 462.08 L 946.04 462.08 Q 946.04 465.26 947.3 467.63 L 947.3 467.63 L 947.3 467.63 Q 948.56 470 950.69 471.29 L 950.69 471.29 L 950.69 471.29 Q 952.82 472.58 955.46 472.58 L 955.46 472.58 Z " fill="rgb(41,134,204)"/><path d=" M 848.417 525.035 L 848.417 525.035 Q 853.008 526.738 855.526 529.997 L 855.526 529.997 L 855.526 529.997 Q 858.044 533.255 858.044 537.846 L 858.044 537.846 L 858.044 537.846 Q 858.044 544.659 852.416 548.398 L 852.416 548.398 L 852.416 548.398 Q 846.788 552.138 836.124 552.138 L 836.124 552.138 L 806.948 552.138 L 806.948 500.302 L 834.643 500.302 L 834.643 500.302 Q 845.011 500.302 850.305 504.004 L 850.305 504.004 L 850.305 504.004 Q 855.6 507.707 855.6 513.853 L 855.6 513.853 L 855.6 513.853 Q 855.6 517.482 853.786 520.37 L 853.786 520.37 L 853.786 520.37 Q 851.971 523.258 848.417 525.035 L 848.417 525.035 Z  M 832.274 512.52 L 824.128 512.52 L 824.128 520.222 L 832.274 520.222 L 832.274 520.222 Q 837.976 520.222 837.976 516.371 L 837.976 516.371 L 837.976 516.371 Q 837.976 512.52 832.274 512.52 L 832.274 512.52 Z  M 834.643 539.92 L 834.643 539.92 Q 840.419 539.92 840.419 535.847 L 840.419 535.847 L 840.419 535.847 Q 840.419 531.774 834.643 531.774 L 834.643 531.774 L 824.128 531.774 L 824.128 539.92 L 834.643 539.92 Z  M 881.37 538.957 L 907.288 538.957 L 907.288 552.138 L 864.19 552.138 L 864.19 500.302 L 906.325 500.302 L 906.325 513.483 L 881.37 513.483 L 881.37 519.555 L 903.289 519.555 L 903.289 532.144 L 881.37 532.144 L 881.37 538.957 Z  M 976.23 552.138 L 960.309 552.138 L 960.161 528.516 L 948.905 547.473 L 941.204 547.473 L 929.948 529.33 L 929.948 552.138 L 914.027 552.138 L 914.027 500.302 L 928.393 500.302 L 945.276 527.923 L 961.716 500.302 L 976.082 500.302 L 976.23 552.138 Z  M 660.77 552.138 L 660.77 500.302 L 686.318 500.302 L 686.318 500.302 Q 694.982 500.302 701.609 503.449 L 701.609 503.449 L 701.609 503.449 Q 708.237 506.596 711.903 512.446 L 711.903 512.446 L 711.903 512.446 Q 715.568 518.296 715.568 526.22 L 715.568 526.22 L 715.568 526.22 Q 715.568 534.144 711.903 539.994 L 711.903 539.994 L 711.903 539.994 Q 708.237 545.844 701.609 548.991 L 701.609 548.991 L 701.609 548.991 Q 694.982 552.138 686.318 552.138 L 686.318 552.138 L 660.77 552.138 Z  M 678.246 538.513 L 685.577 538.513 L 685.577 538.513 Q 691.205 538.513 694.575 535.291 L 694.575 535.291 L 694.575 535.291 Q 697.944 532.07 697.944 526.22 L 697.944 526.22 L 697.944 526.22 Q 697.944 520.37 694.575 517.149 L 694.575 517.149 L 694.575 517.149 Q 691.205 513.927 685.577 513.927 L 685.577 513.927 L 678.246 513.927 L 678.246 538.513 Z  M 749.114 553.323 L 749.114 553.323 Q 740.746 553.323 734.081 549.842 L 734.081 549.842 L 734.081 549.842 Q 727.416 546.362 723.64 540.179 L 723.64 540.179 L 723.64 540.179 Q 719.863 533.995 719.863 526.22 L 719.863 526.22 L 719.863 526.22 Q 719.863 518.445 723.64 512.261 L 723.64 512.261 L 723.64 512.261 Q 727.416 506.078 734.081 502.598 L 734.081 502.598 L 734.081 502.598 Q 740.746 499.117 749.114 499.117 L 749.114 499.117 L 749.114 499.117 Q 757.481 499.117 764.146 502.598 L 764.146 502.598 L 764.146 502.598 Q 770.811 506.078 774.587 512.261 L 774.587 512.261 L 774.587 512.261 Q 778.364 518.445 778.364 526.22 L 778.364 526.22 L 778.364 526.22 Q 778.364 533.995 774.587 540.179 L 774.587 540.179 L 774.587 540.179 Q 770.811 546.362 764.146 549.842 L 764.146 549.842 L 764.146 549.842 Q 757.481 553.323 749.114 553.323 L 749.114 553.323 Z  M 749.114 539.179 L 749.114 539.179 Q 752.372 539.179 755.001 537.587 L 755.001 537.587 L 755.001 537.587 Q 757.63 535.995 759.185 533.07 L 759.185 533.07 L 759.185 533.07 Q 760.74 530.145 760.74 526.22 L 760.74 526.22 L 760.74 526.22 Q 760.74 522.295 759.185 519.37 L 759.185 519.37 L 759.185 519.37 Q 757.63 516.445 755.001 514.853 L 755.001 514.853 L 755.001 514.853 Q 752.372 513.261 749.114 513.261 L 749.114 513.261 L 749.114 513.261 Q 745.855 513.261 743.226 514.853 L 743.226 514.853 L 743.226 514.853 Q 740.598 516.445 739.043 519.37 L 739.043 519.37 L 739.043 519.37 Q 737.488 522.295 737.488 526.22 L 737.488 526.22 L 737.488 526.22 Q 737.488 530.145 739.043 533.07 L 739.043 533.07 L 739.043 533.07 Q 740.598 535.995 743.226 537.587 L 743.226 537.587 L 743.226 537.587 Q 745.855 539.179 749.114 539.179 L 749.114 539.179 Z " fill="rgb(255,255,255)"/></g></svg>